<svg id="Layer_1" data-name="Layer 1" xmlns="http://www.w3.org/2000/svg" viewBox="0 0 389 389">
  <title>dog1</title>
  <circle cx="194.5" cy="194.5" r="194.5" fill="#fff"/>
  <g>
    <path d="M981.5,612.52a4,4,0,0,0-1.93-.57c-.26-.73-.56-1.46-.89-2.19-1.14-2.44-4.38-2.49-6.27-1.09a23.66,23.66,0,0,0-.44-2.74c-.53-2.4-4-4.13-6.15-2.51l-3.82,3c.35-1.92.64-3.85.89-5.8.41-3.35-3.81-5-6.3-3.62a43.92,43.92,0,0,0-18.15,18.3c-2.49,4.77,4.73,9,7.22,4.22a36.41,36.41,0,0,1,7.07-9.44q-.74,2.91-1.64,5.78c-1,3.22,3.19,7,6.14,4.73l6.17-4.76a15.32,15.32,0,0,1-1,2.15c-2.36,4.22,3.06,8.24,6.57,5.07l3.41-3.08a.31.31,0,0,0,0,.1,4.22,4.22,0,0,0,3.07,4,4.37,4.37,0,0,0,4.73-1.92l2.81-3.89C984.32,616.41,983.32,613.58,981.5,612.52Z" transform="translate(-766 -346)" fill="#3b3f44"/>
    <g>
      <path d="M1095,573.88c-.68.63-1.36,1.26-2,1.9,1.44-2.63,2.86-5.28,4.2-8,2.61-5.23,4.57-11,2.65-16.84a4.55,4.55,0,0,0-1.59-2.2c.47-1.06.93-2.11,1.39-3.17,2.43-5.67,9.62-18.22,1-22.27a4.35,4.35,0,0,0-5.07.66c-1.79,1.75-3.51,3.55-5.2,5.38a31.09,31.09,0,0,0,.41-6.9,4.32,4.32,0,0,0-.69-2c1.39-3,2.74-6.08,4-9.15,1.77-4.15-2.87-8.58-6.57-5.07q-3.22,3.08-6.25,6.32a79.08,79.08,0,0,0,7.2-18.4c1.06-4.38-3.82-6.52-7-4.07q-2,1.56-4,3.23a20.77,20.77,0,0,0-.46-8.46,4.21,4.21,0,0,0-6.56-2.2c.32-1.56.61-3.13.85-4.71a4.28,4.28,0,0,0-1.5-4.4,4.11,4.11,0,0,0-4.64-.32q-1.37,1-2.67,2.07c.18-1.4.32-2.81.4-4.23.22-3.64-4.72-5.5-7.14-3l-5.06,5.31c.67-2.8,1.34-5.61,2-8.41.78-3.28-3-6.93-6.15-4.73l-1,.73a23.68,23.68,0,0,0-1-8.71,4.23,4.23,0,0,0-7-1.85l-8.16,7.58c-4,3.67,2,9.58,5.92,5.92l1.67-1.55a14.83,14.83,0,0,1-3,6.76c-1.3,1.63-1.72,3.75-.33,5.5,1.21,1.51,3.67,2.29,5.4,1.07l3-2.1q-1.53,6.4-3.07,12.8c-.94,3.93,4,7.2,7,4.07l6-6.32a51.53,51.53,0,0,1-2.24,5.63,56.88,56.88,0,0,0-3,5.6c-2.24,4.82,4.35,8.88,7.23,4.23a60.19,60.19,0,0,0,3.14-5.8c.89-1.41,1.84-2.78,2.85-4.09a87,87,0,0,1-3.85,9.95,80.63,80.63,0,0,0-5.38,10c-2.16,4.82,4.32,8.9,7.22,4.22a95.17,95.17,0,0,0,5.53-10.23q1.83-2.84,3.92-5.51c-.26.58-.52,1.15-.8,1.71-1.86,3.82-3.93,7.55-6,11.28a116.12,116.12,0,0,0-17,31.9c-1.39,4,4.09,6.77,6.83,4.28a76.23,76.23,0,0,0-7.77,20.92,4.4,4.4,0,0,0,5,5.2q-3.57,6.9-6.79,14a4.18,4.18,0,0,0,7.22,4.22q5.71-7.74,11-15.75c-4.94,9.67-9.45,19.57-13.82,29.44-.92,2.06-.6,4.49,1.5,5.72a4.4,4.4,0,0,0,3.19.41c-.16.36-.32.71-.47,1.07-.82,1.92-.73,4,1.08,5.39,1.51,1.14,4.17,1.32,5.49-.32q9.45-11.8,17.77-24.42l-10.73,19.86c-2.56,4.73,4.47,8.87,7.22,4.22a163,163,0,0,1,15.56-22,137.92,137.92,0,0,1-7.12,12.51,33.51,33.51,0,0,0-6.1,8.73c-2.4,4.94,4,8.46,7.22,4.22q1.44-1.9,2.81-3.86a6.2,6.2,0,0,0,1.85-.46,14,14,0,0,0,8-10,4.51,4.51,0,0,0-1-3.9A141.38,141.38,0,0,0,1102,578C1103.31,573.79,1098,571.18,1095,573.88Zm-5.81-25.28q-2.06,4.42-4.24,8.8a199.83,199.83,0,0,0-17.23,22q3.4-6.85,6.83-13.69l1.44-2.86a177.79,177.79,0,0,1,17.76-24.72Q1091.61,543.41,1089.22,548.6Zm-21.51-32.78q3.24-4.22,6.87-8.11c-5.57,11.28-13.31,21.56-19.88,32.38Z" transform="translate(-766 -346)" fill="#917657"/>
      <path d="M883.74,581.9l-.91.66c.56-1.4,1.1-2.82,1.61-4.24,1.24-3.48-3.17-6.56-6.15-4.73-.72.44-1.42.9-2.12,1.35a116.13,116.13,0,0,0,8.25-21c1.19-4.28-3.84-6.53-6.91-4.12,1.38-3,2.72-6.07,4-9.15.7-1.68-.47-3.87-1.92-4.73a4.34,4.34,0,0,0-5.07.66c-1.26,1.08-2.49,2.18-3.71,3.3,2.05-5.13,2.76-10.25.42-15.51-.88-2-4-2.68-5.73-1.5L863.89,524q4.51-10.23,8.21-20.82a3.51,3.51,0,0,0-.37-3.22q4.83-9.75,9.06-19.77c.75-1.78.74-3.72-.7-5.08A80.43,80.43,0,0,0,887,462c.89-2.13-.51-4-2.39-4.84a4.35,4.35,0,0,0-4.62-.41,59.92,59.92,0,0,0-17.74,14.06A126.43,126.43,0,0,0,816.08,537c-1.18,4.09,4,6.9,7,4.07l1.84-1.8q-2.55,4.31-5,8.69c-2.65,4.79,4.16,8.57,7.22,4.23,2-2.81,4-5.61,5.92-8.43q-2.73,5.55-5.06,11.3c-.77,1.91.68,4.24,2.42,4.94a4.08,4.08,0,0,0,2.38.25q-2.16,4.26-3.93,8.76c-.75,1.91.67,4.23,2.42,4.93a4.25,4.25,0,0,0,5.23-1.71,272.85,272.85,0,0,0,17.93-28.88,89.9,89.9,0,0,1,9.6-9,36.16,36.16,0,0,1-3,6.59q-3.89,7.36-8.06,14.57-3.93,6.79-8.12,13.43-5,7-9.4,14.35c-2.78,4.69,4.22,8.62,7.22,4.22s6.12-9.13,9-13.78a181.5,181.5,0,0,1,12.11-15q-3,5.7-6.32,11.24a136,136,0,0,0-13.65,20.61c-2.61,4.84,4.09,8.5,7.22,4.23q7-9.57,13.08-19.73,2.87-3.57,6-6.94a172.09,172.09,0,0,1-13.54,23.38,99.32,99.32,0,0,0-13.63,19c-2.66,4.83,4.09,8.47,7.23,4.23C854.58,608.88,858.91,603,863,597a89.48,89.48,0,0,1,7.71-7.5q-2.06,4.15-4.4,8.15a102.54,102.54,0,0,0-12.94,18.24c-1.46,2.62.46,5.61,2.85,6.28-2.18,4,3.49,7.74,6.78,4.73q2.28-2.08,4.41-4.31c-.5,3.39,4,6.71,7.12,3.66l8.75-8.67a3.78,3.78,0,0,0,.84-4.51,47.09,47.09,0,0,0,4.13-12.59,5,5,0,0,0-2.18-4.85q2.1-4.38,3.8-9C891.11,583.32,886.64,579.81,883.74,581.9ZM850,493.09c-.11.37-.22.74-.32,1.11a4.11,4.11,0,0,0,1.13,4q-9.33,11.73-19.6,22.7A118.29,118.29,0,0,1,850,493.09Zm5.93,15.63q2.72-3.48,5.52-6.89c-.42.82-.85,1.62-1.28,2.44q-2.49,2.69-4.85,5.48C855.49,509.41,855.7,509.07,855.9,508.72Z" transform="translate(-766 -346)" fill="#917657"/>
      <g>
        <path d="M915.09,500.35c-3.73-1-8.12,1.42-9,5.26a4.75,4.75,0,0,0,.65,3.55,7.66,7.66,0,0,0,3,3.92c3.75,2.61,8.52.2,9.94-3.75A6.86,6.86,0,0,0,915.09,500.35Z" transform="translate(-766 -346)" fill="#3b3f44"/>
        <path d="M1017.05,503.7a6.89,6.89,0,0,0-8.22-4.89,4.11,4.11,0,0,0-3.05,3.6,6.44,6.44,0,0,0-1,5.19,5.9,5.9,0,0,0,7.46,4.22A6.85,6.85,0,0,0,1017.05,503.7Z" transform="translate(-766 -346)" fill="#3b3f44"/>
        <path d="M1098.75,498.22A104.57,104.57,0,0,0,1085,478.56a115,115,0,0,0-16.87-16.37c-11.88-9.15-27-14.74-42-11.21a35.17,35.17,0,0,0-8.68,3.33c-.48-.08-1-.15-1.45-.21a3,3,0,0,0-.73,0c-1.37-1.65-2.81-3.26-4.32-4.8a65.39,65.39,0,0,0-34.27-18.68,91.59,91.59,0,0,0-43.56,2.55,80.77,80.77,0,0,0-28.35,15.05c-14.43-6.82-30.15-.43-41.73,9.12A173.69,173.69,0,0,0,847,473a216.77,216.77,0,0,0-14.7,17.36c-8.79,11.63-16.12,24.8-19.17,39.17-3.51,16.52-.82,33.32,4.36,49.19,2.56,7.85,5.63,15.56,8.9,23.15a86.22,86.22,0,0,0,10.43,18.66c8.49,11.06,21.73,18.44,35.95,15.72,15.91-3,21.25-19.26,22.76-33.43,1.84-17.18-1.88-34.46-5.78-51.1-3.84-16.33-8.11-32.87-7.38-49.79a71.83,71.83,0,0,1,1.89-13.58c0,.72-.09,1.45-.11,2.18-.53,17.36,5.41,34.23,10.5,50.57l16.23,52.11q1.7,5.43,3.38,10.86a42.31,42.31,0,0,0,.59,9.94,45.36,45.36,0,0,0,16,26.69c17.27,14,45.33,15.71,62.57.64,7.27-6.35,10.92-15.53,11.73-25,.08-.13.15-.27.23-.42,14.43-30,29.23-61.12,30.91-94.92,1-19.37-3.52-39.62-13.58-56.41,9.75,5.23,14.16,18.35,15.21,28.71,1.72,17,.44,34.8-2.28,51.67-2.67,16.5-8.13,33.25-6.2,50.14,1.55,13.53,7.67,27.8,20.41,34.29a36.57,36.57,0,0,0,35.7-1.91c13.11-8.49,16.25-24.18,19.1-38.48C1110.59,559.12,1113.33,526.19,1098.75,498.22ZM877,483.28c-4.11,14.07-3.52,28.79-1.2,43.12,2.59,16.07,7.43,31.68,10.1,47.74a113.47,113.47,0,0,1,1.64,23.56c-.31,7-1.28,14.78-4.63,21.1a17.18,17.18,0,0,1-13.27,9.5,26.38,26.38,0,0,1-16.39-3.74c-11.34-6.72-17-20.29-21.72-32-5.94-14.69-11.42-30.15-11.69-46.16-.24-14.08,4.21-27.41,11.31-39.45s16.3-22.55,26-32.51c9.4-9.68,20.45-20.9,35-20.79a23,23,0,0,1,3.8.35C886.59,461.44,880.36,471.83,877,483.28Zm126.92,116.29a117.83,117.83,0,0,0-6.61-20.26c-4.8-11.72-10.69-23.84-10.88-36.75-.14-9.89,2.9-20.78,11.65-26.39,4.52-2.9.33-10.15-4.22-7.23-18.06,11.59-18,35.72-12,53.94,3.8,11.39,9.53,22.1,12.74,33.71,2.61,9.47,3.72,20.36-.35,29.61-8.73,19.82-37,21.13-53.52,11.3A37.9,37.9,0,0,1,923.4,614a31.76,31.76,0,0,1-.86-6.38,3.66,3.66,0,0,0,.52-3.48c-.12-.42-.25-.83-.38-1.24.71-7.68,3.65-15.2,6.91-22.14,5.64-12,12.51-23.77,14.11-37.18,1.34-11.13-1.61-23.45-10.28-31-4-3.54-10,2.36-5.92,5.92,7.3,6.4,9.3,16.87,7.67,26.15-2.13,12-8.54,22.58-13.56,33.56-1.38,3-2.67,6.1-3.76,9.22l-10.29-33c-4.95-15.91-10.89-31.87-13.8-48.32-2.46-13.82-1.5-28.14,6.3-40.14,6.37-9.82,16.26-16.86,26.84-21.55,22.63-10,52.65-10.37,72.52,5.78,18.27,14.85,27.78,39,28.58,62.11C1029.06,542.89,1016.77,572.32,1003.94,599.57Zm93.65-18.15a199.6,199.6,0,0,1-4.72,21.37c-1.87,6.24-4.76,12.4-10,16.45-8.32,6.37-20.74,7.55-29.9,2.33-10.91-6.22-15.19-19.77-15.48-31.64-.4-16.36,4.9-32.36,7.11-48.45,2.24-16.33,3.54-33.48,1.53-49.91-1.51-12.42-6.29-25.51-17-32.66,9.88-2,20.51,1.08,29.09,6.48a84.54,84.54,0,0,1,16.34,14,115.32,115.32,0,0,1,13.79,17.44C1104.14,522,1102.71,553.28,1097.59,581.42Z" transform="translate(-766 -346)" fill="#3b3f44"/>
        <path d="M984.73,602.22c-6.15-6.72-16-9.42-25-8.12-8.89-.76-20.91.29-23.63,10.78s7.43,17.7,16.29,20.06c1.85.49,3.78,1,5.74,1.4a5.49,5.49,0,0,0,.09.9c.49,2.83,1,5.65,1.48,8.48.39,2.23,3.12,3.48,5.15,2.92a4.27,4.27,0,0,0,2.92-5.14c-.34-2-.69-3.92-1-5.89,5.13.35,10.23-.21,14.78-2.57a14.09,14.09,0,0,0,7.7-9.87C990.07,610.33,988,605.74,984.73,602.22Zm-6,14.76c-5.37,3.85-13.26,2.3-19.22,1-5.24-1.12-13.8-2.45-15.28-8.76-.67-2.84,1.34-5,3.81-6.11a13.9,13.9,0,0,1,5.29-1,3.59,3.59,0,0,0,4.09,1.11,23.07,23.07,0,0,1,2.9-.7,4.39,4.39,0,0,0,1.13-.17,21.12,21.12,0,0,1,13.69,2.86C979.1,607.57,984,613.26,978.77,617Z" transform="translate(-766 -346)" fill="#3b3f44"/>
      </g>
    </g>
  </g>
</svg>
