<svg id="Layer_1" data-name="Layer 1" xmlns="http://www.w3.org/2000/svg" viewBox="0 0 591.87 591.87">
  <title>dog2</title>
  <circle cx="295.93" cy="295.93" r="295.93" fill="#fff"/>
  <g>
    <path d="M1162.62,468.8c-2.22-2.23-6.57-2.56-8.76,0l-15.37,17.94q7.47-10.2,15.31-20.12c4.88-6.17-2.64-14.14-8.76-8.76Q1126.72,474,1109.29,491q11.09-14.49,23.07-28.27c5.29-6.07-2.65-13.84-8.76-8.76q-5.79,4.8-11.41,9.8,2.85-3.67,5.75-7.33c1.92-2.41,2.55-5.54.48-8.13-1.78-2.24-5.43-3.4-8-1.6q-12.62,8.9-24.78,18.41,8.1-10.38,16-20.9c4-5.28-3.51-11.14-8.48-8.47q-10.12,5.42-19.81,11.6l6.59-7.42a6,6,0,0,0,.89-7.28q10.9-11.22,22.48-21.77c5.13-4.67-1.66-13.75-7.51-9.73a377.4,377.4,0,0,0-78.56,72.5c-1.91,1.68-3.82,3.37-5.71,5.08l5.3-7.65c1.74-2.51.7-6.27-1.6-8a5.8,5.8,0,0,0-4.61-1.18,5.88,5.88,0,0,0-.61-6.42c-1.77-2.23-5.43-3.41-8-1.6q-10.87,7.73-21.15,16.19,2.22-3.63,4.4-7.29c3.13-5.28-3.16-11.72-8.48-8.48-1.82,1.11-3.61,2.25-5.4,3.4l2.69-3.3c1.94-2.39,2.53-5.56.48-8.13-1.76-2.22-5.46-3.44-8-1.6Q952,455.31,938.47,467.26q2.35-3.09,4.74-6.16c2.06-2.63,2.57-6.19,0-8.76a6.29,6.29,0,0,0-8.76,0q-30.23,29.57-57.4,62,6.65-9.9,13.58-19.62,11.82-16.5,24.48-32.38c4.89-6.12-2.74-14.26-8.76-8.76q-5,4.59-9.83,9.38a8.77,8.77,0,0,0-2.42,1.37,495.78,495.78,0,0,0-45.27,40.41q2.71-3.56,5.46-7.08,14-17.86,29.07-34.83c5.4-6.08-2.61-13.68-8.76-8.76q-10.64,8.51-20.78,17.56,10.32-11.42,21.2-22.32c5.23-5.23-1.36-12.58-7.51-9.73a195.22,195.22,0,0,0-42.13,27q11.49-15.28,23.39-30.26c4.17-5.23-1-13.44-7.51-9.74A216,216,0,0,0,823,438.25q9.48-10.51,19.24-20.77c4.88-5.14-1.28-13.07-7.51-9.73q-6.16,3.3-12.07,7,6-8.55,11.88-17.23c3.38-5-2.19-9.77-7-9.1A48,48,0,0,0,816,391.6l.47-.82c2.66-4.41-1.81-10.95-7-9.11a18.47,18.47,0,0,0-12,12.3,5.4,5.4,0,0,0,1.37,5.8c-.68,2.1-1.27,4.24-1.75,6.4-1.28,5.8,5.88,10.71,10.36,6a39.06,39.06,0,0,1,5.09-4.49Q796,431.2,777.92,453.57c-2.1,2.6-2.54,6.22,0,8.76a6.63,6.63,0,0,0,6.81,1.39q-16.07,19.47-31.22,39.68c-4.24,5.66,5,12.59,9.73,7.51,16.41-17.57,33-35.32,51.53-50.7Q787.13,497.08,762,535.75c-3.76,5.79,5.38,13.12,9.73,7.51,18.57-24,38.34-48,61.81-67.3a624.78,624.78,0,0,0-54.68,74.42q-10.59,16.92-20.06,34.5c-3.79,7,6.5,13,10.7,6.25A501.33,501.33,0,0,1,821,522a738,738,0,0,0-40.51,64.78q-11.16,20.12-21,40.91c-3.39,7.12,7,13.41,10.7,6.26A490.45,490.45,0,0,1,843.75,528c-12.56,18.69-24.06,38.14-35,57.73-7.54,13.49-14.85,27.11-22.14,40.74-3.79,7.07,6.31,12.89,10.7,6.25l10.57-16c2,3.8,7.68,5.31,10.71.51l8.62-13.67-.27,9.72c-.12,4.38,5.16,7.51,8.88,5.7a51.27,51.27,0,0,1-1.17,7.72c-.59,2.52.35,5.77,2.85,7,3.68,1.81,6.66,5,7.09,9.27s3.59,6.7,7.84,6l6.66-1.13c3.3-.57,5.15-4.63,4.32-7.63-1-3.49-4.31-4.89-7.62-4.32l-.46.08a23.6,23.6,0,0,0-7.82-10.62,63.51,63.51,0,0,0,.54-16.87c-.46-4.36-3.57-6.59-7.84-6a5.4,5.4,0,0,0-.58.11l.6-21.44a5.61,5.61,0,0,0-1.32-3.91c.69-1.26,1.39-2.5,2.08-3.76,2.86,1.11,5.79-.2,7.56-2.66q15-20.76,31.25-40.55-7.63,12.15-14.87,24.55-5.54,9.09-10.54,18.49c-3.74,7,6.83,13.26,10.7,6.26q4.44-8,9-16a369.5,369.5,0,0,1,34.62-48.5l-1,1.27-.19.23h0c-.32.41-.66.82-1,1.25-4.22,5.54,5.3,13,9.74,7.5l11.1-13.65a238.66,238.66,0,0,1,30.93-29.46q-11.57,17.38-24.34,34c-4.27,5.53,5.17,12.84,9.73,7.51a363.92,363.92,0,0,1,25.63-27q-9.92,14.37-19,29.28-5.46,8.5-10.26,17.43c-2.81,5.23,2.33,10,6.76,9.21A6.64,6.64,0,0,0,950,557.7c3.15,1.84,6.48.48,8.48-2.22a453,453,0,0,1,41.21-48.38l-27.2,35.44c-4.27,5.57,5.09,12.74,9.73,7.51q18.65-21,37.27-41.95a5.54,5.54,0,0,0,1.75-1.3,300.67,300.67,0,0,1,49.89-43.05q-21.37,27.13-43.9,53.32c-5.14,6,3.08,14.51,8.76,8.77a605,605,0,0,1,45.71-41.7q-14.62,20.44-28,41.74c-3.66,5.83,5.3,13.11,9.73,7.51q3.92-4.95,8-9.78-7,10.83-13.45,22c-3.45,5.93,5,12.94,9.73,7.51q18.81-21.51,38.91-41.83-14.24,21.68-26.89,44.34c-3.3,5.92,5,13,9.74,7.51l3-3.47q-10.3,17.58-19.75,35.67c-3.7,7.1,6.29,12.9,10.7,6.25q13-19.68,27.54-38.26-6.46,15.76-11.35,32.11a5.65,5.65,0,0,0,1.59,5.93l-1.09,1c-1.23-4.83-7.65-6.38-11.23-1.65a171.67,171.67,0,0,0-22.78,40.9c-1.23,3.11,1.35,6.8,4.33,7.62,3.52,1,6.39-1.2,7.62-4.33a154.73,154.73,0,0,1,9.72-20.13,5.4,5.4,0,0,0,8-.36,236.19,236.19,0,0,1,16.95-16.84c-1,5.22,4.89,10.4,9.43,6.71q-1.68,5.07-3.17,10.21c-1.88,6.56,8.35,11.29,11.33,4.77a86.74,86.74,0,0,0,6-18,247.64,247.64,0,0,1,9.91-23.56c2.25-4.65-1.86-10-6.16-9.48q2.47-5.22,4.94-10.43c2.93-6.18-4.4-12.57-9.73-7.51l-15.72,14.94a330.41,330.41,0,0,1,25.28-51.94c3.58-5.95-4.89-12.74-9.73-7.51l-.83.91q13.68-20,28.52-39.15C1164.67,474.92,1165.2,471.37,1162.62,468.8Z" transform="translate(-665.05 -244.71)" fill="#917657"/>
    <path d="M997.66,369.32q-9.45,6.09-18.45,12.8a29.82,29.82,0,0,0,1-6.14c.22-4.45-5.53-8.06-9.32-5.35L957.75,380c.75-4.89-5.28-7.71-9.4-5.82l-13.42,6.16A112.65,112.65,0,0,1,944.65,361c2.66-4.22-.89-9-5.35-9.32a40.58,40.58,0,0,0-9.1.4,6.11,6.11,0,0,0-9.11-5.81A41.85,41.85,0,0,0,904.93,361c-4.39,6.69,6.34,12.91,10.7,6.26.08-.13.17-.24.25-.36a6,6,0,0,0,6.84.54,28.87,28.87,0,0,1,5.34-2.16,122.46,122.46,0,0,0-9.25,24.91c-1.42,5.59,4.31,9.19,9.1,7l10.39-4.77c-.93,1.44-1.9,2.86-2.92,4.24-3.63,4.94,3.55,12,8.48,8.48l10.45-7.47c-3.9,4.69-7.42,9.56-9.75,15.36-2.42,6,6.26,10,10.36,6a317.59,317.59,0,0,1,25.47-22.23q-8.13,13.67-16.27,27.31c-4.09,6.87,6.62,13.11,10.7,6.26l31.31-52.55C1009.23,372.6,1002.94,365.91,997.66,369.32Z" transform="translate(-665.05 -244.71)" fill="#917657"/>
    <path d="M1060.68,583.15a5.07,5.07,0,0,0-4.35-3,55.75,55.75,0,0,0-1.12-13.35c-.78-3.78-5.92-5.85-9.1-3.71l-.63.45a56.84,56.84,0,0,0-1.15-14.6c-1.09-5.2-7.49-5.53-10.64-2.3-1.2-4.21-6.36-6.57-10.22-2.92-1,.94-2,1.9-2.91,2.87.33-1.32.66-2.63,1-4,1.26-5.19-4.33-9.79-9.1-7a36.73,36.73,0,0,0-17.53,24.13c-1,4.89,3.32,8,7.08,7.73q-1.59,5.4-3.29,10.75c-1.17,3.68,1.55,6.74,4.72,7.6-1.92,1.61-3.79,3.25-5.61,5,.22-1.37.42-2.75.59-4.14.58-4.65-5.7-7.75-9.32-5.35-2.21,1.46-4.35,3-6.44,4.6.24-1,.47-2,.68-3,1.32-6.3-5.58-10-10.35-6l-1.55,1.31.93-2.62c1.91-5.39-4.65-9.35-9.1-7a70.41,70.41,0,0,0-12.15,8.18c-.44-4.24-5-8.16-9.14-5.06a272.43,272.43,0,0,0-28.37,25l14.07-24.22c3-5.22-3.15-11.88-8.48-8.48a134.52,134.52,0,0,0-43.44,44.76c-4.08,6.87,6.63,13.11,10.7,6.25a122.1,122.1,0,0,1,11.77-16.52l-26.73,46c-3.42,5.88,5.13,13.08,9.73,7.5,12.49-15.14,25.1-30.45,38.88-44.54-.09.16-.19.32-.29.48-14.13,16.44-25.18,35.5-35.69,54.56-2.43,4.41.57,8.26,4.27,9l-6.33,13.41a6.41,6.41,0,0,0,2.92,8.61l-1.32,5.61c-1.08,4.64,2.48,7.6,6.06,7.65l-.16,5c-.11,3.23,3.07,6.27,6.26,6.35-.08,1.62-.15,3.23-.23,4.85-.38,8,12,8,12.39,0l.78-16.43c.16-3.31-3.18-6.35-6.43-6.33l.23-7a5.53,5.53,0,0,0-3.51-5.46l2.78-11.9L912.38,658q5.63-8.06,11-16.27a6.15,6.15,0,0,0,6.71,4.66l1.44,5.39c2.07,7.69,14,4.43,12-3.3q-2.3-8.54-4.58-17.07a6.49,6.49,0,0,0-6.13-4.49q9.71-15.81,18.49-32.19a5.14,5.14,0,0,0,.52-1.45c.65-.75,1.31-1.49,2-2.2q-2.91,8.19-5.81,16.39c-2.37,6.7,7.9,10.79,11.33,4.78.88-1.55,1.82-3.06,2.78-4.55a5.93,5.93,0,0,0,2.21,6.14c2.23,1.67,6.21,2,8.14-.48a102.84,102.84,0,0,1,10.19-11.17,89.42,89.42,0,0,1-3.83,10c-3.33,7.32,5.93,12.65,10.7,6.25,2.11-2.84,4.36-5.58,6.7-8.23-1.08,2-2.2,3.9-3.31,5.82-5.3,9.2-10.13,18.32-11.51,29-.34,2.64,2.17,5.32,4.55,6,2.82.78,5.37-.6,7-2.85,9.05-12.48,18.45-25.24,30.08-35.38l-15.09,34c-1.36,3.05-.89,6.65,2.22,8.47a6.58,6.58,0,0,0,7.27-.65q-2.86,7.21-5.72,14.43c-2.65,6.66,7.84,10.65,11.32,4.77a178.09,178.09,0,0,1,14-20.23q-6.7,21-13.43,42a6.27,6.27,0,0,0,4.33,7.62,5.89,5.89,0,0,0,3.14,0l-4,13.39c-1.75,5.91,6.08,10.48,10.36,6l9.5-9.9c3.67-3.82,1-9-2.75-10.31l9.67-32.74c1.27-4.29-2.65-8-6.49-7.84q5-15.54,10-31.08c2-6.16-6-10-10.35-6q-3.71,3.4-7.2,7l4-10.23c1.72-4.34-3.61-9.09-7.76-7.7l6.75-15.2.09-.24a6.81,6.81,0,0,0,8.14.7s0,.09,0,.13c-.41,3.33,3.14,6.2,6.2,6.2,3.69,0,5.79-2.86,6.19-6.2A30.54,30.54,0,0,0,1060.68,583.15Zm-26.41,7a95.87,95.87,0,0,0-22.64,16.22,43.47,43.47,0,0,0,3.22-16.78,5.9,5.9,0,0,0-5.14-5.92,5.18,5.18,0,0,0,.31-.57,107.22,107.22,0,0,1,7.63-13.33l-.19,1.06c-1.25,6.9,7.26,10.72,11.33,4.77l3.22-4.71a42.33,42.33,0,0,1-3.7,9.66c-3.79,7.15,6.12,12.67,10.7,6.25a52.71,52.71,0,0,1,4.9-5.85,42.05,42.05,0,0,1-2.17,10.36A6,6,0,0,0,1034.27,590.1Z" transform="translate(-665.05 -244.71)" fill="#5e503e"/>
    <path d="M937.65,534.85l-.86.49c-.81-3.37-4.07-6.05-7.55-4.92,2-5.39-6-10.09-10.53-6l-68,61.11c-5.94,5.35,2.84,14.09,8.76,8.77l23.26-20.92q-4.28,5.82-8.07,12c-4.24,6.93,6.12,12.6,10.7,6.26s9.17-12.73,13.75-19.09a155.89,155.89,0,0,1,23-22.27,6.21,6.21,0,0,0,11.42,4.11,28.06,28.06,0,0,1,10.33-8.86C951,541.85,944.72,531.15,937.65,534.85Z" transform="translate(-665.05 -244.71)" fill="#5e503e"/>
    <path d="M977.35,639.43A14.27,14.27,0,0,0,973,633l1.3-7.72c.88-5.27-4-9.71-9.1-7A16.84,16.84,0,0,0,956.8,629a5.76,5.76,0,0,0,3.26,7c-.09,2.85,1.27,6,4.43,6.58l.91.15C968,650.2,980,647,977.35,639.43Z" transform="translate(-665.05 -244.71)" fill="#4a4d55"/>
    <path d="M990.9,662.68l-3.24,1.67.27-2.65c.54-5.2-5.53-7-9.32-5.35a73.49,73.49,0,0,0-9.8,5.22c0-.46,0-.92-.07-1.39-.26-3.67-3.81-7.48-7.84-6a55.81,55.81,0,0,0-21.46,14c-5.47,5.8,3.28,14.58,8.76,8.77a44.59,44.59,0,0,1,7.92-6.69c-.13,1-.27,1.91-.46,2.87-1.18,6,5.64,10.36,10.35,6a65.33,65.33,0,0,1,8.4-6.51l-.24,2.38c-.52,5,5.55,7.29,9.32,5.35l13.66-7C1004.24,669.74,998,659,990.9,662.68Z" transform="translate(-665.05 -244.71)" fill="#917657"/>
    <g>
      <path d="M1171.3,460.49c-5.1-12.19-12.18-24.41-22-33.45a43.33,43.33,0,0,0-28.12-11.92,195.85,195.85,0,0,0-5.76-31.22c-1.11-4.09-5.56-5.43-9.1-3.7a361.64,361.64,0,0,0-84,56.89,6.31,6.31,0,0,0-1,1.16,111.27,111.27,0,0,0-29.53-9q-5.84-.93-11.7-1.44c5.27-30.88,29.29-56.77,60-63.72,5.67-1.28,6.14-11,0-11.95-23.47-3.52-49.32,1.73-68.16,16.77l-.1.07c-.35-.58-1-1.3-1.28-1.73a58.41,58.41,0,0,0-4.25-6.64A45.45,45.45,0,0,0,954.6,350c-9.24-5.88-20.4-8.61-31.28-8.79-15.39-.26-30.38,4.19-45,8.62-6.1,1.86-5.66,9.92,0,11.95a181,181,0,0,1,35,17.05,109.49,109.49,0,0,0-30.68,19.4c-4.57,4.09.23,12.27,6,10.35,20.54-6.76,44,1.6,56.07,19.26-15,1.17-29.76,3.81-43.48,10.05a76.76,76.76,0,0,0-8,4.24,505,505,0,0,0-44.32-38.86q-12.27-9.56-25.08-18.39-6.23-4.28-12.57-8.35c-4.31-2.77-9.54-7.38-15-5.87-4.51,1.24-6.34,5.47-7.29,9.62a131.08,131.08,0,0,0-2.65,16.84,125.35,125.35,0,0,0-.52,15.38c.15,5.11,1.14,9.56-2.62,13.54-6.33,6.69-12.56,13.05-17.88,20.63a125.33,125.33,0,0,0-12.72,23.12,127.46,127.46,0,0,0-9.91,60.48,6.35,6.35,0,0,0,5.25,5.79c-4.06,22.55.38,46.43,8.41,67.61a260.47,260.47,0,0,0,22,43.82,6.27,6.27,0,0,0,10.7,0A219.24,219.24,0,0,1,820.72,609,98,98,0,0,0,862,673.32a5.35,5.35,0,0,0,4.43.91l22.83,61.06c1.29,3.45,5.54,6.17,9.1,3.7,19.7-13.63,29.74-38.18,27-61.42,22.37,13.91,52.49,15.06,74.88-.31a3.4,3.4,0,0,0,.3-.23c4.28,24.53,20.24,47.07,42.64,58.24,4.41,2.2,11.08-1.52,9.1-7-5.42-15,2.84-30.14,8.68-43.73,1.57-3.66,3-7.32,4.25-11a5.5,5.5,0,0,0,3.82-1,80.57,80.57,0,0,0,32.34-45.77q9.18,12.82,18.38,25.64c2.7,3.77,8.09,4.2,10.7,0a187,187,0,0,0,27.27-114.21l8.58,5.3c3.49,2.15,8,0,9.1-3.71A117.78,117.78,0,0,0,1171.3,460.49ZM909.79,394.16a96.22,96.22,0,0,1,18.85-7.61c5.48-1.57,5.66-8.3,1.48-11.33a191.07,191.07,0,0,0-31.3-18.33c16.77-4.14,34.4-5.81,49.52,3.8a30.72,30.72,0,0,1,9.81,9.77c2.64,4.33,5,9.5,10.39,10.88,6.2,1.58,10.62-2.66,15.42-5.73A75.32,75.32,0,0,1,999.18,368q3.33-1.18,6.75-2.1c-20,14.06-34.6,36.11-38.11,60.5a5.38,5.38,0,0,0-.07.69c-3-.06-6.1-.05-9.14,0a8.6,8.6,0,0,0-.43-1C948.73,408.1,929.75,396.3,909.79,394.16ZM857.4,613.24c-3.35-6.77-2.84-15.15-.89-22.47,3-11.13,9.47-21.45,17-30.08a129.69,129.69,0,0,1,27.11-23.16,167.86,167.86,0,0,1,15.79-9.2c5.55-2.81,10.42-3.42,15.83,0,10,6.37,15.54,19.66,14.69,31.41a156.53,156.53,0,0,0-24.62,2.17l-1.49.28a13,13,0,0,0,5.19-6.72c2.41-7.16-2.15-16-10.31-15.87a12.49,12.49,0,0,0-4.73,1,6.69,6.69,0,0,0-4.49,1.77,11.15,11.15,0,0,0-3.6,7.63,9.89,9.89,0,0,0,.56,5.89,8.44,8.44,0,0,0,1.84,2.77,13.05,13.05,0,0,0,3.28,3.39,10.49,10.49,0,0,0,4.56,1.88C888.23,570.85,864.7,587.78,857.4,613.24ZM994,666.56c-16.55,11.36-39.47,12.29-57.45,3.51a161.06,161.06,0,0,0,18-1.72l44.89-6.13c0,1.26,0,2.52,0,3.79A5.13,5.13,0,0,0,994,666.56Zm-29.65-19.17c-6.43-3.5-11.76-10-11.65-17.65.1-6.29,5.16-11.43,11.37-12.23,6.86-.87,10.45,5.27,10.36,11.44C974.32,636.3,969.5,642.35,964.35,647.39Zm83.93,35.45c-4.78,10.94-9.88,22.64-10.17,34.54a69.31,69.31,0,0,1-25.78-62.28c.55-4.47-4.38-6.45-7.84-6L976.07,653c5-5.52,9.08-11.89,10.27-19.27,1.56-9.68-1.4-20.41-10.16-25.78-7.33-4.5-17.12-3.4-24.18,1.11a24.63,24.63,0,0,0-11.56,23.22,33.33,33.33,0,0,0,14.18,23.65c-12.09,1.69-25.78,4.12-37-1.84h0c-4-6.89-14.72-.66-10.7,6.25,11.51,19.81,7.37,47.15-8.93,63.07q-8-21.3-15.92-42.58c-5.76-15.4-13.53-31.58-14.48-48.23-1.67-29.07,23-50,49.11-56.8,15.55-4.08,31.83-4.21,47.78-3.1,14.43,1,28.87,3.14,42.61,7.81,13.12,4.45,25.39,11.64,34.5,22.21a68.3,68.3,0,0,1,15.55,35.48C1059.22,654.23,1054.62,668.35,1048.28,682.84Zm18.65-82.75a45.29,45.29,0,0,1-1.59,9.1,27,27,0,0,1-1.25,3.85c-.16.35-.37.68-.55,1a1.58,1.58,0,0,1-.29.36,76.17,76.17,0,0,0-8.52-14.94,84.7,84.7,0,0,0-35.23-27.38,139.71,139.71,0,0,0-31.43-9,6.11,6.11,0,0,0,.18-1.16c.6-9,2.83-18.87,8.86-25.86,7.15-8.3,18.36-9.32,28.2-5.52,10.31,4,18.73,12.88,25.2,21.56a85.19,85.19,0,0,1,14.78,30.24A57.88,57.88,0,0,1,1066.93,600.09Zm98.63-71.66-12.31-7.59c-5-3.11-9.88,2-9.1,7,5.93,37.62-1.31,76.76-19.58,110l-21.51-30c-3.57-5-11.16-3.26-11.54,3.13a67.37,67.37,0,0,1-22.18,45.6,70.51,70.51,0,0,0,.48-15.75,87,87,0,0,0-2.49-14.58c6.3-2.81,8.83-9,10.4-15.51a62.07,62.07,0,0,0,1.35-21c-1.5-14.19-6.94-27.73-14.8-39.57s-18-23.42-30.88-29.59c-13.32-6.38-29.27-6.59-41.14,3-11.18,9-15.36,24-16.36,37.77L973,561c-4.6-.47-9.22-.83-13.84-1a49,49,0,0,0-13.26-36.28c-5.37-5.61-12.6-10.08-20.54-10.33s-15.14,4.06-21.75,7.83c-24.82,14.14-48.58,34.95-58,62.77-4.88,14.48-4.66,32.4,7.1,43.57a6.24,6.24,0,0,0,2.47,1.48c0,9.21,2,18.27,4.84,27.15a85,85,0,0,1-28.23-60.06c-.18-5.59-6.54-7.88-10.58-4.38A231.89,231.89,0,0,0,784,632.81c-21.7-38.09-39.38-89.25-9.55-127.21,6.92-8.82,16-15.86,26.74-19.4,7.54-2.5,4.31-14.47-3.29-11.95-19.64,6.51-34.52,21.76-43.12,40.16A116.12,116.12,0,0,1,781.31,446c6.86-8.15,16.72-14.4,17.12-26,.23-6.93-.47-13.79.08-20.75.27-3.4.69-6.78,1.29-10.15.28-1.61.6-3.22,1-4.82,1,.73,2,1.56,2.6,1.93q3,1.93,6.06,3.92,6,4,11.94,8.11,11.45,8,22.41,16.66a503.41,503.41,0,0,1,39.31,34.67,63.21,63.21,0,0,0-14.28,17.67c-3.77,7,6.92,13.29,10.7,6.26,12.17-22.67,38.46-30.81,62.51-33,26.06-2.37,54.5-1.81,78.06,10.95,11.36,6.14,21.09,14.79,27.5,26.08,3.93,6.94,14.64.7,10.7-6.25a77.73,77.73,0,0,0-25.67-26.71,349.66,349.66,0,0,1,72.73-50,176.62,176.62,0,0,1,3.6,21.82c-15.2,3.57-28.42,13.53-40.38,23.08-2.62,2.09-2.18,6.58,0,8.76,2.58,2.59,6.13,2.1,8.76,0,17.17-13.69,42.64-31,62.83-12.78,16.81,15.17,25.86,39.86,27.57,62A105.67,105.67,0,0,1,1165.56,528.43Z" transform="translate(-665.05 -244.71)" fill="#3b3f44"/>
      <path d="M1021.37,544.41a8.75,8.75,0,0,0-9.5.08,5.65,5.65,0,0,0-4.88,1.78c-5,5.05-4.06,13.41,1,18.05a11.19,11.19,0,0,0,17.58-2.87C1028.62,555.81,1027.06,547.75,1021.37,544.41Z" transform="translate(-665.05 -244.71)" fill="#3b3f44"/>
    </g>
  </g>
</svg>
