<svg id="Layer_1" data-name="Layer 1" xmlns="http://www.w3.org/2000/svg" viewBox="0 0 366 366">
  <title>dog3</title>
  <circle cx="183" cy="183" r="183" fill="#fff"/>
  <g>
    <path d="M977.07,592a10,10,0,0,0-6-3,17.23,17.23,0,0,0-.35-5.54c-.5-2.25-2.71-2.92-4.58-2.33.28-.55.57-1.1.86-1.65a3.62,3.62,0,0,0-4.91-4.91c-.63.33-1.25.67-1.87,1a3.56,3.56,0,0,0-5.3-3.34h0c.31-2.65-2.8-5.31-5.37-3.58a127.91,127.91,0,0,0-18,14.6c-2.58,2.51-.07,6.15,2.73,6.1-.74,3.17,3.26,6.42,5.91,3.47q1.68-1.87,3.47-3.6c-.31.38-.62.77-.94,1.15a3.7,3.7,0,0,0,0,5.07,3.62,3.62,0,0,0,5.07,0,58.47,58.47,0,0,1,6.19-6.57l-1.86,3.58c-2,3.74,2.52,6.89,5.63,4.34l3.69-3a9.73,9.73,0,0,0-.57,6.82c1.57,5.72,7.91,9.08,13.3,6C979.32,603.75,981.35,596.54,977.07,592Zm-7.92,8.54a2.93,2.93,0,0,1-1.47-2.31,2.32,2.32,0,0,1,.41-1.56c1-.95,3.33-.8,4,.6C972.9,598.84,970.78,601.25,969.15,600.55Z" transform="translate(-777 -357)" fill="#4a4d55"/>
    <path d="M945.93,543.53a10.13,10.13,0,0,0,0-3.47c-.32-1.91-2.69-3-4.41-2.51a6.55,6.55,0,0,0-4.71,4.83,3.43,3.43,0,0,0,1.35,3.67,3.68,3.68,0,0,0,2.08,2.18,3.58,3.58,0,0,0,1.59,4.12,3.62,3.62,0,0,0,4.9-1.28A7,7,0,0,0,945.93,543.53Z" transform="translate(-777 -357)" fill="#4a4d55"/>
    <path d="M932.05,477.74a7.19,7.19,0,0,0-.37-1.45,3.76,3.76,0,0,0-3.45-2.63,7,7,0,0,0-7.37,5.56,3.54,3.54,0,0,0,4.61,4.31,3.55,3.55,0,0,0,2.64,1.2l3.56.14a3.57,3.57,0,0,0,.38-7.13Z" transform="translate(-777 -357)" fill="#4a4d55"/>
    <path d="M927.41,513a3.63,3.63,0,0,0-1.3-.62l1-2.31c.7-1.64.62-3.46-.93-4.62a4,4,0,0,0-2.52-.75c.18-.42.37-.84.56-1.26a3.75,3.75,0,0,0-.56-4.35,3.61,3.61,0,0,0-4.34-.56c-1.16.84-2.28,1.71-3.39,2.6,1.4-3.35-3.14-6.4-5.91-3.8a61.68,61.68,0,0,0-5.09,5.39,3.17,3.17,0,0,0-2.18,1.7L901,507.66c-1.58-1.45-4.63-1.48-5.71.69l-6.38,12.73c-1.95,3.91,3.51,7.37,5.84,4.2a4.1,4.1,0,0,0,4,.47c-.16,1.73-.29,3.47-.38,5.21-.16,3.19,4,4.61,6.12,2.53,1.71-1.66,3.38-3.42,5.08-5.16a3.31,3.31,0,0,0,3.64-.83l.68-.85a3.43,3.43,0,0,0,.88,1,3.79,3.79,0,0,0,2.64.72c1.49,1.83,4.86,2.43,6.06-.17l4.87-10.56A3.62,3.62,0,0,0,927.41,513Zm-20.16,7.81-.84.82a2.87,2.87,0,0,1,.05-.31q2.09-2.91,4.46-5.61l-1.15,2.55C908.89,519.1,908.06,520,907.25,520.79Z" transform="translate(-777 -357)" fill="#4a4d55"/>
    <path d="M1006.41,490.52c-.75-1.65-1.51-3.29-2.26-4.94a3.61,3.61,0,0,0-4.91-1.29A3.69,3.69,0,0,0,998,489.2l2.26,4.93a3.59,3.59,0,0,0,4.9,1.29A3.68,3.68,0,0,0,1006.41,490.52Z" transform="translate(-777 -357)" fill="#4a4d55"/>
    <path d="M1008.58,553.48a44.09,44.09,0,0,1-9.27.87,3.68,3.68,0,0,0,0,5.07c2.86,3.36,8.29,2.42,10.55-1A3.62,3.62,0,0,0,1008.58,553.48Z" transform="translate(-777 -357)" fill="#4a4d55"/>
    <path d="M1041.59,541.48c-1.83-1.07-3.74-.27-4.91,1.28a64.85,64.85,0,0,0-7.45,12.82,4.1,4.1,0,0,0,1.72,5.16l-3,7,0,0c-.14.27-.28.55-.4.84-1,2.43,1.42,4.47,3.68,4.52a32.92,32.92,0,0,1-2.52,6.59c-1.43,2.8,1.25,6,3.85,5.42l-1.65,4.8c-.79,2.32,1.28,4.42,3.46,4.53.54,0,.9,1.51.32,2-3.45,3.08,1.64,8.13,5.07,5.07,4-3.59,2.78-9.63-1-12.57l3.59-10.44c.92-2.69-1.66-4.65-4.05-4.46a42.36,42.36,0,0,0,1.14-7.83,3.47,3.47,0,0,0-1.84-3.11q1.59-3.66,3.16-7.32a4.17,4.17,0,0,0-1.13-4.77q1.5-2.43,3.22-4.73C1044,544.83,1043.13,542.38,1041.59,541.48Z" transform="translate(-777 -357)" fill="#4a4d55"/>
    <g>
      <path d="M1076.12,520.2h0l0,0Z" transform="translate(-777 -357)" fill="#4a4d55"/>
      <path d="M1091.44,523.77l-1.33.35a3.69,3.69,0,0,0-3-4,3.61,3.61,0,0,0-3.76-5.65l-2.34.56a7.39,7.39,0,0,0-7-1.87,3.08,3.08,0,0,0-2.56,3.31,4,4,0,0,0-3.45-1,18.5,18.5,0,0,0-8.92,4.64c-2.22,2-.83,4.9,1.34,5.78l-6.62,10.69c-2.29,3.68,2.65,6.77,5.63,4.34l.87-.71-3.1,5.32c-2.11,3.61,2.65,7,5.63,4.35l.86-.77a2.85,2.85,0,0,0,.35.53,4,4,0,0,0,2.53,1.41,3.68,3.68,0,0,0,6,1.84,166.12,166.12,0,0,0,17.7-18,4.41,4.41,0,0,0,.69-1.1l3.94-4.09A3.61,3.61,0,0,0,1091.44,523.77Zm-15.53-3.65a.22.22,0,0,1,.21.07s0-.08-.06-.13l.06.14c.07.07.08.16,0,0a4.41,4.41,0,0,0,1,1.49c-.26.47-.51.94-.76,1.42a3.89,3.89,0,0,0-5.23-.91l.89-1.44a3.37,3.37,0,0,0,.53-1.62A3.43,3.43,0,0,0,1075.91,520.12Z" transform="translate(-777 -357)" fill="#4a4d55"/>
    </g>
    <path d="M1062.58,485.21a9.76,9.76,0,0,0-8.31-3.24,13.42,13.42,0,0,1-2.19-6.35,4.74,4.74,0,0,0-2.9-4.47,6.27,6.27,0,0,0-1-.38,4,4,0,0,1,.32-.91c1.45-3.08-1.62-6.86-4.91-4.91a25.12,25.12,0,0,0-6.43,5.41,3.69,3.69,0,0,0,0,5.07,12.51,12.51,0,0,1,7.91,2.11,20.92,20.92,0,0,0,5.23,11,3.48,3.48,0,0,0,3.49.92,2.85,2.85,0,0,1,3.67.83C1060.53,493.78,1065.58,488.69,1062.58,485.21Z" transform="translate(-777 -357)" fill="#4a4d55"/>
    <path d="M873.39,552.54a15,15,0,0,0-1-3.28,12.92,12.92,0,0,1-.5-5.49,3.75,3.75,0,0,0-3.45-4.47c.4-4.27,1-8.52,1.71-12.75a4,4,0,0,0-2.34-4.27q1.2-5.25,2.41-10.5a3.56,3.56,0,0,0-1.68-4c.81-2.08,1.61-4.17,2.42-6.25,1.38-3.56-3.58-5.72-6-3.49a38,38,0,0,0-10.74,17.59,3.29,3.29,0,0,0,2,4.11l-1.5,3.86c-1.13,2.92,1.94,4.87,4.42,4.29l-1.83,8a3.84,3.84,0,0,0,3.83,4.55c-.23,2.74-.41,5.5-.51,8.25-.12,3,2.87,4.06,5.09,3.09.14.46.31.91.48,1.37,0,.78,0,1.56-.05,2.33-.12,4.62,7.05,4.62,7.17,0C873.34,554.51,873.44,553.51,873.39,552.54Z" transform="translate(-777 -357)" fill="#4a4d55"/>
    <path d="M868.44,573.41q-2.9,10.61-5.77,21.2c-1.2,4.39,5.5,6.3,6.85,2.08a2.83,2.83,0,0,0,.41,0,3.66,3.66,0,0,0,3.58-3.58q1-9.39,2-18.78C875.91,570.28,869.47,569.6,868.44,573.41Z" transform="translate(-777 -357)" fill="#4a4d55"/>
    <path d="M845.65,555.91c-.31-2-.61-4.08-.92-6.11a3.37,3.37,0,0,0-3.79-2.58l-.1-.21a8,8,0,0,0-1-1.63,5.68,5.68,0,0,0-1.65-1.41,16.53,16.53,0,0,0-1.24-5.19c-.81-1.93-2.9-3.17-4.77-2.42l0-2.72a3.61,3.61,0,0,0-6.68-1.81l-.64,1.09a30.35,30.35,0,0,0-1.56-3.8,3.6,3.6,0,0,0-5.63-.72l-5.2,6.23a3.68,3.68,0,0,0,0,5.07c1.27,1.27,3.82,1.49,5.07,0l1.31-1.58a23.51,23.51,0,0,1,.3,5.51c-.21,3.39,4.26,4.59,6.27,2.36a3.66,3.66,0,0,0,5.38,1.56,4.15,4.15,0,0,0,.2,1.76,4,4,0,0,0,4.28,2.52,6.44,6.44,0,0,0,2.31,2.27,5.86,5.86,0,0,0,.67.32l.51,3.4c.28,1.91,2.7,3,4.41,2.5C845.2,559.76,845.94,557.83,845.65,555.91Z" transform="translate(-777 -357)" fill="#4a4d55"/>
    <path d="M865.75,471.38a3.68,3.68,0,0,0,0-5.07,3.6,3.6,0,0,0-1.74-.93,3.85,3.85,0,0,0-5.94.46l-.9,1.29a3.46,3.46,0,0,0-5-.05c-1.45,1.56-2.86,3.14-4.26,4.74-1.32-1.4-3.65-1.94-5.18-.23A166.32,166.32,0,0,0,822,500.41c-2.27,4,3.92,7.64,6.19,3.62.81-1.44,1.65-2.85,2.51-4.26a3.91,3.91,0,0,0,5.59-.78c1.22-1.89,2.49-3.75,3.77-5.59a3.29,3.29,0,0,0,4.78-.12,175.89,175.89,0,0,0,11.81-13.49,3.34,3.34,0,0,0,3.88-.74l.54-.73h0a1.19,1.19,0,0,1,.08-.16,19.66,19.66,0,0,0,1.74-2.95A37.47,37.47,0,0,1,865.75,471.38Z" transform="translate(-777 -357)" fill="#4a4d55"/>
    <g>
      <g>
        <g>
          <path d="M1038.5,465.5l-.11-.05Z" transform="translate(-777 -357)" fill="#3b3f44"/>
          <path d="M1112.24,496.93c-3.6-8.74-9.75-16.16-16.41-22.75a119.76,119.76,0,0,0-20.93-16.47,122.23,122.23,0,0,0-50.38-17.51,114.79,114.79,0,0,0-13.36-.73,3.34,3.34,0,0,0-2.49,1,133.67,133.67,0,0,0-52.84-8.83,135.83,135.83,0,0,0-27.37,3.77A123.86,123.86,0,0,0,915,439.5c-3.88,1.41-8.08,4.11-12.23,2.44-2.11-.84-4.07-1.92-6.26-2.55a30.4,30.4,0,0,0-7.33-1.12,43,43,0,0,0-13.28,1.89c-8.49,2.46-16.57,6.57-24.35,10.71-13.91,7.41-27.41,16.69-36.49,29.82a55.52,55.52,0,0,0-7.45,47.48,57.56,57.56,0,0,0,11.93,21c4.84,5.58,10.36,10.49,15.48,15.79,4.69,4.85,9.33,10.23,11.65,16.67,2.89,8,.86,17.63,6.57,24.56a14,14,0,0,0,9.92,5.23c4.4.16,7.71-2.68,9.92-6.21a65.58,65.58,0,0,0,9.05-25.65c1.31-9.47.38-18.74-1.66-28-.15-.69-.31-1.39-.47-2.08,1.13,3.5,2.41,6.95,3.81,10.34,3.79,9.2,8.26,18.07,12.81,26.9,1.1,13.33,2.48,27,9,38.91a41.73,41.73,0,0,0,29.51,21.31,104.65,104.65,0,0,0,19.53,1.51,120.42,120.42,0,0,0,22.12-1.6c12.39-2.3,24.82-8.76,30.87-20.29,6.77-12.91,4.78-28.07,2.7-41.88,11.14-13.75,16.95-30.89,18.43-48.45,1.73-20.4-2.78-40.93-9.51-60.09-1.69-4.8-3.81-9.47-5.44-14.29a5.07,5.07,0,0,1-.52-2.45,0,0,0,0,1,0,0c1.56-.1,3.67,2.06,4.67,3,6,5.62,9,13.63,10.74,21.51,4.44,19.94,3.69,41.43-.06,61.41-1.82,9.71-4.09,19.43-4.48,29.35-.34,9,.93,19.59,6.69,26.91,2.59,3.29,6.47,6.24,10.85,6.26,4.69,0,8.13-3.26,9.7-7.45,1.4-3.74,1.56-7.86,2.68-11.7a49.33,49.33,0,0,1,4.5-10.52c8.07-14.24,21.41-24.74,33.54-35.36,6.54-5.74,13.71-11.54,18.42-18.95C1115.78,515.57,1115.91,505.82,1112.24,496.93Zm-291.6,42.13q-1.26-1.84-2.34-3.81c7.44-2.34,13.84,3.62,18,9.1a58.53,58.53,0,0,1,6.29,9.47c1.24,2.58,1.75,5.92-.54,8l-.1.1C834.82,554.34,826.55,547.72,820.64,539.06ZM875,578.78a64.48,64.48,0,0,1-3.24,12.68,57.91,57.91,0,0,1-3.16,7.3c-2.68-3.6-2.14-8.82-1.29-13,.52-2.49,1-5.27,2.53-7.4,1.11-1.6,3.16-2.95,5-1.78l.39.22C875.22,577.48,875.14,578.13,875,578.78Zm162.77,19.86a15.36,15.36,0,0,1-2.2-2.73c-4.74-7.66-4.78-17.69-3.9-26.34,1-9.57,3.42-18.92,4.91-28.41q.54-3.48,1-7a27.08,27.08,0,0,1,1.73,7.13,163.79,163.79,0,0,1,1,18.92A251.76,251.76,0,0,1,1037.81,598.64Zm52.3-63.63c-6.65,5.92-13.57,11.66-20,17.86a3.82,3.82,0,0,0-1.3-.2c-7.06.16-8.31-8.75-8.46-14a80,80,0,0,1,.58-12.18c.23-1.83.54-3.66.91-5.47a13.1,13.1,0,0,1,1.23-4.18c1.44-2.36,5.43-1.16,7.67-.88l12.53,1.59c1.33.18,3,.24,4.09,1s1.82,2.5,2.35,3.77a29.66,29.66,0,0,1,2.17,11v.09Zm16.47-19.18c-1.55,4.4-4.6,8.17-8,11.59a34.23,34.23,0,0,0-1.38-5.56c-1.16-3.37-2.68-7-5.67-9.12-3.17-2.28-7.42-2.29-11.14-2.77-4.08-.51-8.15-1.11-12.24-1.54-3.44-.36-7.06.09-9.62,2.64s-3.19,5.94-3.8,9.2c-1.47,7.89-2.19,16.27-1,24.25.92,6.17,4.56,12.38,10.36,14.53a98.56,98.56,0,0,0-8.31,10.22,58.08,58.08,0,0,0-9.49,21.28c-.32,1.57-.43,4-1,6a259.67,259.67,0,0,0,2.14-38.82c-.14-6.7-.27-13.57-1.48-20.18-1-5.38-3.21-10.26-7.45-13.71.28-4.8.37-9.62.23-14.44a138,138,0,0,0-3.53-29.34c-.26-1.07-.56-2.13-.87-3.2A44.19,44.19,0,0,0,1046.59,490c4.86,3.47,13.44,7.72,18.35,2,2.91-3.42,1.78-7.78.13-11.48a58.25,58.25,0,0,0-5.21-9.4c-4.46-6.49-10.53-12.09-18.45-13.73a3.51,3.51,0,0,0-3.38,1,7.87,7.87,0,0,0-5.6,3.12,8.66,8.66,0,0,0-1.62,6.44,37.94,37.94,0,0,0-6.89-9.81c-2.85-2.88-6.61-5.95-10.88-5.93-5.36,0-7.58,5.22-6.62,9.83a35.24,35.24,0,0,0,2.05,5.7c1,2.43,1.91,4.88,2.8,7.34,1.8,4.92,3.46,9.9,4.9,14.94a143.47,143.47,0,0,1,5.52,29.77c1.2,17.73-1.74,36.08-10.79,51.57a66.66,66.66,0,0,1-7.36,10.29,3.6,3.6,0,0,0-.16,4.64l0,.28c1.63,10.79,3.24,22.45-.49,33s-13.69,16.85-24.15,19.51A85.25,85.25,0,0,1,959,641.25a138.38,138.38,0,0,1-18.1-.62c-11.24-1.32-21.19-6.06-27.44-15.78-7.19-11.19-8.59-24.67-9.66-37.64a3.51,3.51,0,0,0-.29-2.67c-8-15.62-16.23-31.48-19.87-48.81a77.76,77.76,0,0,1-1.33-25.81c1.07-8.37,4.19-16,8-23.46,4.13-8.11,8.61-16.21,10.44-25.22a3.69,3.69,0,0,0-2.5-4.41c-8.88-3.23-13.52,8.29-16.29,14.4A213.79,213.79,0,0,0,872.48,495a18.52,18.52,0,0,0-14.28,3.27,24.36,24.36,0,0,0-9.84,16c-1.21,7-.32,14.08,1.12,21s3.67,13.7,7.94,19.3a26.13,26.13,0,0,0,17.94,10.61c.12,1.35.19,2.71.22,4.06a10.79,10.79,0,0,0-8.44,1.86c-3.58,2.57-5.26,6.76-6.27,10.9-1.83,7.48-2.39,16,3,22.17a5.15,5.15,0,0,1-4.14-1.52c-3-2.55-3.49-6.76-3.86-10.45-.42-4.12-.79-8.23-2.17-12.16a41.53,41.53,0,0,0-4.7-9.37c-.76-1.13-1.56-2.23-2.39-3.3a4.94,4.94,0,0,0,.54-.42c8.49-7.88.65-19.17-4.63-26.21-6.05-8.07-15.34-15.83-26.14-12.38a4.27,4.27,0,0,0-1,.46,48.09,48.09,0,0,1,.5-34.82c5.73-13.82,17.56-23.94,30-31.63a194.62,194.62,0,0,1,20.73-11c7.66-3.54,16.55-7,25.15-5.7,4.44.68,8.16,3.6,12.6,4,4.63.45,9-2,13.21-3.53a127.08,127.08,0,0,1,77.66-2.65,130.56,130.56,0,0,1,12.64,4.3,3.36,3.36,0,0,0,3.67-1.17A112.67,112.67,0,0,1,1061,458.22c15.25,7.51,30.17,18.63,39.85,32.8C1105.8,498.21,1109.64,507.14,1106.58,515.83Zm-64.27-50.73a24.3,24.3,0,0,1,11,9.09,55.65,55.65,0,0,1,4.77,8.22c.59,1.22,2.74,4.72.75,5.16-2.33.52-5.16-1.47-7-2.64a36.28,36.28,0,0,1-12.66-14c-.62-1.2-1.6-3-1.31-4.39.1-.48.19-.44.35-.8.33-.73.76,0,.28-.2A3.39,3.39,0,0,0,1042.31,465.1ZM886.89,477.41q1.86-4.1,3.77-8.07C889.53,472.07,888.23,474.75,886.89,477.41Zm-18.76,47.5c.52,9.33,3.1,18.34,5.15,27.41.41,1.85.79,3.69,1.11,5.55-13.32-2.31-17.73-19.56-19.09-30.89-.78-6.48-.76-14.21,3.52-19.6,2.85-3.58,7.23-6,11.71-5.38A78,78,0,0,0,868.13,524.91Z" transform="translate(-777 -357)" fill="#3b3f44"/>
        </g>
        <path d="M996.1,598.38c-.26-1.92-1.47-3.58-3.59-3.58-1.74,0-3.84,1.65-3.58,3.58,1.45,10.82-4,22.73-15.81,24.35a14.18,14.18,0,0,1-13.34-5.09,13.88,13.88,0,0,1-2.38-4.71,23.5,23.5,0,0,0,.88-4.86c8.64.78,17.58-2.8,21.32-11.22,4.3-9.7-1.36-19-9.41-24.45-8.29-5.62-20.37-9.12-30.07-5.46-4.63,1.74-8.84,4.87-11,9.4a19.68,19.68,0,0,0-1.05,14c2.88,10,12,15.6,21.72,17.29a18.86,18.86,0,0,0,.26,5.2c-2.2,5-6.91,9-12.24,9.69-8.57,1.06-17-6.53-17.28-15-.16-4.6-7.33-4.62-7.17,0,.44,12.56,12.27,23.63,25,22.12a22.27,22.27,0,0,0,15-8.76,21.15,21.15,0,0,0,9.83,7.85c11,4.17,23.59-1.48,29.25-11.34A30.36,30.36,0,0,0,996.1,598.38Zm-60-7c-3.32-6.09-1.84-13.4,4.41-16.79,6.85-3.71,15.63-1.52,22.2,1.79,5.39,2.72,12,7.8,11.19,14.66-1.12,8.91-11.28,11.38-18.63,9.23a3.28,3.28,0,0,0-3,.56C945.93,600.08,939.31,597.19,936.13,591.35Z" transform="translate(-777 -357)" fill="#3b3f44"/>
        <path d="M908.55,508.43a6.6,6.6,0,0,0-2.34.41,4.63,4.63,0,0,0-2.22,1.22,4.72,4.72,0,0,0-1.37,4.11,3.12,3.12,0,0,0,.12,1.24c.89,3.07,3.88,4.37,6.86,3.86a5.45,5.45,0,0,0-1.05-10.84Z" transform="translate(-777 -357)" fill="#3b3f44"/>
        <path d="M935.49,512.33a42.11,42.11,0,0,0-10.11-15.54c-4.32-4.17-9.8-6.86-15.88-5.47l-.08,0c-9.22-1.07-18.23,4.59-22.12,13-4.31,9.33-4.34,23.09,4.84,29.51,4.46,3.12,10.3,4.71,15.63,5.44a29.32,29.32,0,0,0,16.84-2.25C933.9,532.62,939,522.22,935.49,512.33ZM929,522.43a14.2,14.2,0,0,1-6.14,7.43c-7,4.33-16.42,2.9-23.62-.23-3.78-1.64-6.19-4-7.08-8.13a23,23,0,0,1,.46-11c2.15-7.61,9.49-13.95,17.72-11.73a3.26,3.26,0,0,0,3.18-.69c2.59.24,4.92,1.95,6.79,3.75a38.92,38.92,0,0,1,7.16,9.91C929.19,515.09,930.17,518.77,929,522.43Z" transform="translate(-777 -357)" fill="#3b3f44"/>
        <path d="M863.89,460.09a3.4,3.4,0,0,0-2.77,1.47,171.42,171.42,0,0,0-25.49,15.3,105,105,0,0,0-12.06,9.68c-3.22,3.16-5.86,7.25-5.7,11.93.14,4.3,2.53,8.54,6.72,10,5.14,1.81,10-1.53,14.07-4.34a171.59,171.59,0,0,0,23.88-20.08c3.65-3.71,8.57-7.93,9.54-13.3C873,465.68,869.51,459.86,863.89,460.09Zm-.52,12.55a86.07,86.07,0,0,1-8,8.49,159.81,159.81,0,0,1-18.73,15.73c-1.63,1.16-3.26,2.34-5,3.39-1.24.77-3.14,2-4.69,1.49-2.1-.7-2.19-3.89-1.57-5.58,1.18-3.23,4.26-5.56,6.83-7.67q4.62-3.78,9.51-7.19a171.46,171.46,0,0,1,23-13.55,2.35,2.35,0,0,1,.4,1.06C865.24,470.16,864.14,471.65,863.37,472.64Z" transform="translate(-777 -357)" fill="#3b3f44"/>
        <path d="M1004.37,476.78a3.73,3.73,0,0,0-.77-.9,6.72,6.72,0,0,0-9.21.2c-2.53,2.46-3.09,6.51-3.15,9.87-.13,6.25,2.78,13,9.32,14.63,6.13,1.54,12.58-2.22,12.63-8.92C1013.24,485.72,1009.25,480.1,1004.37,476.78Zm-.92,17c-2.74,0-4.2-2.23-4.77-4.69a14.23,14.23,0,0,1-.14-5,10.66,10.66,0,0,1,.48-2.14,14.16,14.16,0,0,1,6.33,6.79C1006.33,491,1006.48,493.77,1003.45,493.77Z" transform="translate(-777 -357)" fill="#3b3f44"/>
        <path d="M1015.59,555c-1-4-3.89-6.94-7.35-8.95a3.46,3.46,0,0,0-3.46-3.64c-7-.11-10.92,7-9.74,13.26,1.07,5.66,5.83,13.14,12.44,12.1C1013.16,566.91,1016.92,560.48,1015.59,555Zm-8.75,5.53c-2,1-3.94-3.59-4.43-5a6.76,6.76,0,0,1,0-4.42,11.35,11.35,0,0,1,5.5,4C1009,556.84,1009,559.55,1006.84,560.56Z" transform="translate(-777 -357)" fill="#3b3f44"/>
        <path d="M932.22,473.91a3,3,0,0,0-1.72-2c-6.13-3-12.28,2.36-12.69,8.6-.39,5.94,3.87,11.92,10,12.58,5.63.61,11.79-3.77,11.8-9.75A10.09,10.09,0,0,0,932.22,473.91Zm.17,9.59c-.22,1.71-2.55,2.84-4.11,2.53-1.89-.37-3.13-2.42-3.33-4.22a3.86,3.86,0,0,1,.41-2.29,3.14,3.14,0,0,0,3.78,1.35A2.62,2.62,0,0,1,932.39,483.5Z" transform="translate(-777 -357)" fill="#3b3f44"/>
        <path d="M942.83,531.31a3.91,3.91,0,0,0-4-.25c-5.69,2.55-8.06,9.11-7.82,15,.26,6.47,3.61,14.54,11.56,12.42a11.76,11.76,0,0,0,7.37-6.69A25.52,25.52,0,0,0,952.7,541C952.59,535.38,947.88,530.66,942.83,531.31ZM945,544.53c-.48,1.7-2.26,8.43-5.31,7-.59-.29-1.06-2.49-1.24-3.41a14.54,14.54,0,0,1-.18-4.56,8.47,8.47,0,0,1,1.84-4.57,3.94,3.94,0,0,0,3.53-.68.38.38,0,0,1,.33,0c.35.25.74.33,1,.68C946.15,540.41,945.38,543.05,945,544.53Z" transform="translate(-777 -357)" fill="#3b3f44"/>
      </g>
      <path d="M998.31,512.07a6.92,6.92,0,0,0-9.51-3c-3.41,2-4.72,7.17-2.33,10.46a3.78,3.78,0,0,0,4.28,1.57,7.3,7.3,0,0,0,3.74,0A6.29,6.29,0,0,0,998.31,512.07Z" transform="translate(-777 -357)" fill="#3b3f44"/>
    </g>
  </g>
</svg>
